<svg xmlns="http://www.w3.org/2000/svg" xmlns:xlink="http://www.w3.org/1999/xlink" viewBox="0 0 73 81" fill="#fff"
    fill-rule="evenodd" stroke="#000" stroke-linecap="round" stroke-linejoin="round">
    <style>
        <![CDATA[
        .B {
            fill: #669df6
        }

        .C {
            fill: #aecbfa
        }
        ]]>
    </style>
    <use xlink:href="#A" x=".5" y=".5" />
    <symbol id="A" overflow="visible">
        <g stroke="none">
            <path
                d="M52.271 18.358L35.556 8.416a11.33 11.33 0 0 1-4.951-6.773c-.723-2.808.634-1.268 1.505-.792s13.863 8.16 20.795 12.279c2.495 1.466.951 7.922.951 7.922a3.05 3.05 0 0 0-1.584-2.693z"
                class="B" />
            <path
                d="M57.301 43.075c.052.52-.193 1.026-.634 1.307l-3.961 2.693v-31.49c0-1.069.673-2.218-.238-2.773l3.644 2.693a2.89 2.89 0 0 1 1.386 2.575z"
                class="C" />
            <path
                d="M35.555 46.679a1.42 1.42 0 0 1-.792-.238l-13.705-8.16v3.565l14.497 8.635 1.149-2.258s-.871-1.545-1.149-1.545zm.792 7.13c-.48.32-1.105.32-1.584 0l-13.705-8.16v2.614c.002.559.285 1.08.753 1.386l12.992 7.922c.463.277 1.042.277 1.505 0 .359-.646.626-1.34.792-2.06l-.753-1.545z"
                class="B" />
            <path
                d="M35.555 43.233l14.497-8.635v-1.703c.007-.551-.279-1.064-.753-1.347l-12.992-7.922c-.463-.277-1.042-.277-1.505 0l-12.992 7.922c-.462.293-.745.8-.753 1.347v1.703l14.497 8.635z"
                class="C" />
            <path
                d="M35.555 39.668l-13.745-8.12c-.462.293-.745.8-.753 1.347v1.703l14.497 8.635 1.109-2.218-1.109-1.347z"
                class="B" />
            <path
                d="M35.555 46.679v3.961l14.497-8.635V38.44l-13.705 8.001a2.59 2.59 0 0 1-.792.238zm.792 7.13a1.43 1.43 0 0 1-.792.238v3.565a1.98 1.98 0 0 0 .832-.198l12.992-7.922c.486-.29.774-.821.753-1.386v-2.614L36.348 53.81zM49.3 31.548l-13.745 8.12v3.565l14.497-8.635v-1.703c.007-.551-.279-1.064-.753-1.347z"
                fill="#4285f4" />
            <path
                d="M18.84 62.245l16.438 9.784c2.622 1.553 4.464 4.143 5.07 7.13.052.284-.073.572-.316.728s-.556.15-.793-.015L17.652 67.078c-2.099-1.268-.277-7.447-.277-7.447a3.05 3.05 0 0 0 1.466 2.614z"
                class="B" />
            <path
                d="M13.81 63.038V37.054c.021-.533.302-1.021.753-1.307l3.961-2.337v31.331c0 1.069 0 2.733.832 3.288l-4.199-2.614a2.97 2.97 0 0 1-1.347-2.377z"
                class="C" />
            <path
                d="M28.267 14.437a2.97 2.97 0 0 0-2.931 0L8.7 24.497c-2.485 1.47-5.469 1.843-8.239 1.03a.91.91 0 0 1 0-1.584c.713-.356 25.033-14.814 25.033-14.814.911-.555 2.931 5.506 2.931 5.506z"
                class="B" />
            <path
                d="M28.227 8.971L49.3 21.448c.464.239.766.707.792 1.228v4.674l-26.42-15.685a2.97 2.97 0 0 0-2.931 0l4.674-2.733a2.81 2.81 0 0 1 2.892 0z"
                class="C" />
            <path
                d="M42.765 66.048a2.89 2.89 0 0 0 2.931 0l16.636-9.863c2.512-1.479 5.529-1.839 8.318-.99a.83.83 0 0 1 0 1.505L45.577 71.554c-.871.555-2.931-5.545-2.931-5.545z"
                class="B" />
            <path
                d="M21.731 59.156a2.22 2.22 0 0 1-.673-1.307v-4.595l26.38 15.567c.885.552 2.007.552 2.892 0l-4.674 2.773c-.897.559-2.034.559-2.931 0z"
                class="C" />
            <path
                d="M12.82 31.666a3.01 3.01 0 0 0-1.466 2.575v19.805c-.008 3.003-1.255 5.869-3.446 7.922-.207.186-.504.234-.759.123s-.423-.36-.429-.638V31.508c0-1.109 6.1 0 6.1 0z"
                class="B" />
            <path
                d="M26.722 18.635c.436-.272.99-.272 1.426 0l3.961 2.337L8.027 35.073a3.05 3.05 0 0 0-1.466 2.614v-5.506a2.85 2.85 0 0 1 1.505-2.535z"
                class="C" />
            <path
                d="M59.995 46.045V26.24a11.13 11.13 0 0 1 3.327-7.922c2.125-2.089 1.307-.436 1.228.832s0 29.192 0 29.192c-1.228 1.466-6.377 0-6.377 0a3.21 3.21 0 0 0 1.822-2.297z"
                class="B" />
            <path
                d="M63.283 50.679L44.508 61.968c-.449.279-1.017.279-1.466 0l-3.961-2.258 24.202-14.537a3.05 3.05 0 0 0 1.466-2.614v5.704c-.079.911-1.466 2.416-1.466 2.416z"
                class="C" />
        </g>
    </symbol>
</svg>